<svg xmlns="http://www.w3.org/2000/svg" width="1600" height="900" viewBox="0 0 1600 900" role="img" aria-labelledby="title desc">
  <title id="title">Figure 2 - CSR Programme Page Mockup</title>
  <desc id="desc">A CSR programme page with modules, impact metrics, testimonials, and registration.</desc>
  <defs>
    <linearGradient id="bg2" x1="0" y1="0" x2="1" y2="1">
      <stop offset="0%" stop-color="#f7f9fd"/>
      <stop offset="100%" stop-color="#fff4f8"/>
    </linearGradient>
    <style>
      .c{fill:#fff;stroke:#e5e7eb;stroke-width:2}
      .h{font:700 26px 'Poppins',Arial,sans-serif;fill:#1f2937}
      .t{font:500 16px 'Inter',Arial,sans-serif;fill:#6b7280}
    </style>
  </defs>
  <rect width="1600" height="900" fill="url(#bg2)"/>
  <rect x="60" y="40" width="1480" height="820" rx="28" class="c"/>

  <rect x="100" y="80" width="1400" height="72" rx="14" class="c"/>
  <rect x="130" y="104" width="180" height="24" rx="8" fill="#b0003a"/>
  <rect x="1110" y="106" width="220" height="20" rx="10" fill="#ffe5ef"/>

  <rect x="100" y="184" width="1400" height="150" rx="20" fill="#b0003a"/>
  <text x="140" y="245" style="font:700 42px 'Poppins',Arial,sans-serif;fill:#fff">CSR Programme: Financial Literacy for Gen Z</text>
  <rect x="140" y="273" width="620" height="12" rx="6" fill="#ffd1e1"/>
  <rect x="140" y="296" width="560" height="12" rx="6" fill="#ffd1e1"/>

  <text x="100" y="380" class="h">Learning Modules</text>
  <rect x="100" y="400" width="900" height="220" rx="16" class="c"/>
  <rect x="130" y="435" width="250" height="150" rx="14" fill="#fff0f5"/>
  <rect x="410" y="435" width="250" height="150" rx="14" fill="#fff0f5"/>
  <rect x="690" y="435" width="280" height="150" rx="14" fill="#fff0f5"/>
  <rect x="150" y="465" width="170" height="12" rx="6" fill="#d1d5db"/>
  <rect x="430" y="465" width="170" height="12" rx="6" fill="#d1d5db"/>
  <rect x="715" y="465" width="200" height="12" rx="6" fill="#d1d5db"/>

  <text x="1040" y="380" class="h">Impact Metrics</text>
  <rect x="1040" y="400" width="460" height="220" rx="16" class="c"/>
  <rect x="1080" y="438" width="380" height="18" rx="9" fill="#fbcfe8"/>
  <rect x="1080" y="470" width="320" height="18" rx="9" fill="#fda4af"/>
  <rect x="1080" y="502" width="350" height="18" rx="9" fill="#f9a8c0"/>
  <rect x="1080" y="540" width="180" height="30" rx="10" fill="#b0003a"/>

  <rect x="100" y="650" width="880" height="170" rx="16" class="c"/>
  <text x="130" y="700" class="h" style="font-size:22px">Student Testimonials</text>
  <circle cx="165" cy="744" r="22" fill="#f9a8c0"/>
  <rect x="200" y="732" width="720" height="12" rx="6" fill="#d1d5db"/>
  <rect x="200" y="756" width="620" height="12" rx="6" fill="#d1d5db"/>
  <rect x="200" y="780" width="160" height="24" rx="8" fill="#ffe5ef"/>

  <rect x="1010" y="650" width="490" height="170" rx="16" class="c"/>
  <text x="1040" y="700" class="h" style="font-size:22px">Register for Workshops</text>
  <rect x="1040" y="730" width="420" height="12" rx="6" fill="#d1d5db"/>
  <rect x="1040" y="754" width="300" height="12" rx="6" fill="#d1d5db"/>
  <rect x="1040" y="780" width="190" height="28" rx="10" fill="#b0003a"/>

  <text x="100" y="848" class="t">Figure 2. CSR Programme Page - overview, modules, impact data, testimonials, and registration flow.</text>
</svg>
