<svg xmlns="http://www.w3.org/2000/svg" width="1600" height="900" viewBox="0 0 1600 900" role="img" aria-labelledby="title desc">
  <title id="title">Figure 3 - Community Page Mockup</title>
  <desc id="desc">Community page with feed, discussions, leaderboard and upcoming events.</desc>
  <defs>
    <linearGradient id="bg3" x1="0" y1="0" x2="1" y2="1">
      <stop offset="0%" stop-color="#fff6fa"/>
      <stop offset="100%" stop-color="#f5f8fc"/>
    </linearGradient>
    <style>
      .c{fill:#fff;stroke:#e5e7eb;stroke-width:2}
      .h{font:700 24px 'Poppins',Arial,sans-serif;fill:#1f2937}
      .t{font:500 16px 'Inter',Arial,sans-serif;fill:#6b7280}
    </style>
  </defs>
  <rect width="1600" height="900" fill="url(#bg3)"/>
  <rect x="60" y="40" width="1480" height="820" rx="28" class="c"/>

  <rect x="100" y="84" width="1400" height="70" rx="14" class="c"/>
  <rect x="130" y="106" width="170" height="24" rx="8" fill="#b0003a"/>

  <rect x="100" y="184" width="1400" height="120" rx="18" fill="#b0003a"/>
  <text x="140" y="246" style="font:700 40px 'Poppins',Arial,sans-serif;fill:#fff">OCBC Gen Z Community</text>

  <rect x="100" y="334" width="880" height="486" rx="16" class="c"/>
  <text x="130" y="380" class="h">Community Feed</text>

  <rect x="130" y="405" width="820" height="112" rx="14" fill="#f9fafb" stroke="#e5e7eb"/>
  <circle cx="170" cy="460" r="22" fill="#fda4af"/>
  <rect x="205" y="442" width="710" height="12" rx="6" fill="#d1d5db"/>
  <rect x="205" y="466" width="640" height="12" rx="6" fill="#d1d5db"/>
  <rect x="205" y="490" width="120" height="18" rx="7" fill="#ffe5ef"/>

  <rect x="130" y="530" width="820" height="112" rx="14" fill="#f9fafb" stroke="#e5e7eb"/>
  <circle cx="170" cy="585" r="22" fill="#f9a8c0"/>
  <rect x="205" y="567" width="710" height="12" rx="6" fill="#d1d5db"/>
  <rect x="205" y="591" width="570" height="12" rx="6" fill="#d1d5db"/>
  <rect x="205" y="615" width="130" height="18" rx="7" fill="#ffe5ef"/>

  <rect x="130" y="655" width="820" height="145" rx="14" fill="#f9fafb" stroke="#e5e7eb"/>
  <text x="160" y="700" class="h" style="font-size:20px">Discussion Forum</text>
  <rect x="160" y="720" width="760" height="10" rx="5" fill="#d1d5db"/>
  <rect x="160" y="742" width="660" height="10" rx="5" fill="#d1d5db"/>
  <rect x="160" y="766" width="180" height="24" rx="8" fill="#b0003a"/>

  <rect x="1010" y="334" width="490" height="236" rx="16" class="c"/>
  <text x="1040" y="380" class="h">Leaderboard</text>
  <rect x="1040" y="404" width="430" height="30" rx="10" fill="#ffe5ef"/>
  <rect x="1040" y="444" width="430" height="30" rx="10" fill="#fff1f5"/>
  <rect x="1040" y="484" width="430" height="30" rx="10" fill="#fff6f8"/>
  <rect x="1040" y="530" width="180" height="24" rx="8" fill="#b0003a"/>

  <rect x="1010" y="584" width="490" height="236" rx="16" class="c"/>
  <text x="1040" y="630" class="h">Upcoming Events</text>
  <rect x="1040" y="656" width="430" height="12" rx="6" fill="#d1d5db"/>
  <rect x="1040" y="680" width="350" height="12" rx="6" fill="#d1d5db"/>
  <rect x="1040" y="706" width="430" height="12" rx="6" fill="#d1d5db"/>
  <rect x="1040" y="730" width="300" height="12" rx="6" fill="#d1d5db"/>
  <rect x="1040" y="760" width="200" height="26" rx="9" fill="#b0003a"/>

  <text x="100" y="848" class="t">Figure 3. Community Page - feed, discussion forum, leaderboard, and event updates.</text>
</svg>
