<svg xmlns="http://www.w3.org/2000/svg" width="900" height="1600" viewBox="0 0 900 1600" role="img" aria-labelledby="title desc">
  <title id="title">Figure 6 - Rewards System</title>
  <desc id="desc">Mobile rewards system with challenges, badges, and redemption panel.</desc>
  <defs>
    <linearGradient id="bg6" x1="0" y1="0" x2="1" y2="1">
      <stop offset="0%" stop-color="#fff4f8"/>
      <stop offset="100%" stop-color="#f3f7fc"/>
    </linearGradient>
  </defs>
  <rect width="900" height="1600" fill="url(#bg6)"/>
  <rect x="130" y="40" width="640" height="1520" rx="78" fill="#111827"/>
  <rect x="164" y="128" width="572" height="1366" rx="52" fill="#fff"/>
  <rect x="380" y="76" width="140" height="18" rx="9" fill="#374151"/>

  <text x="210" y="220" style="font:700 40px 'Poppins';fill:#1f2937">Rewards System</text>
  <text x="210" y="262" style="font:500 24px 'Inter';fill:#6b7280">Gamified savings motivation</text>

  <rect x="200" y="300" width="500" height="230" rx="24" fill="#b0003a"/>
  <text x="236" y="352" style="font:700 30px 'Poppins';fill:#fff">Current Challenge</text>
  <text x="236" y="408" style="font:700 34px 'Poppins';fill:#fff">Save 7 days in a row</text>
  <rect x="236" y="440" width="420" height="22" rx="11" fill="#fbcfe8"/>
  <rect x="236" y="440" width="290" height="22" rx="11" fill="#fff"/>
  <text x="236" y="496" style="font:600 22px 'Inter';fill:#ffd6e4">5 / 7 days completed</text>

  <rect x="200" y="560" width="500" height="280" rx="24" fill="#f9fafb" stroke="#e5e7eb"/>
  <text x="236" y="612" style="font:700 30px 'Poppins';fill:#1f2937">Badges and Points</text>
  <circle cx="280" cy="690" r="50" fill="#fda4af"/>
  <circle cx="450" cy="690" r="50" fill="#fb7185"/>
  <circle cx="620" cy="690" r="50" fill="#f43f5e"/>
  <rect x="236" y="760" width="420" height="14" rx="7" fill="#d1d5db"/>
  <rect x="236" y="788" width="340" height="14" rx="7" fill="#d1d5db"/>

  <rect x="200" y="872" width="500" height="250" rx="24" fill="#fff0f5" stroke="#f9a8c0"/>
  <text x="236" y="924" style="font:700 30px 'Poppins';fill:#1f2937">Community Motivation</text>
  <rect x="236" y="958" width="420" height="14" rx="7" fill="#fda4af"/>
  <rect x="236" y="986" width="370" height="14" rx="7" fill="#fda4af"/>
  <rect x="236" y="1014" width="330" height="14" rx="7" fill="#fda4af"/>
  <rect x="236" y="1050" width="190" height="32" rx="12" fill="#b0003a"/>

  <rect x="200" y="1154" width="500" height="220" rx="24" fill="#f9fafb" stroke="#e5e7eb"/>
  <text x="236" y="1206" style="font:700 30px 'Poppins';fill:#1f2937">Reward Redemption</text>
  <rect x="236" y="1240" width="420" height="18" rx="9" fill="#d1d5db"/>
  <rect x="236" y="1274" width="290" height="18" rx="9" fill="#d1d5db"/>
  <rect x="236" y="1308" width="210" height="34" rx="12" fill="#b0003a"/>

  <text x="140" y="1578" style="font:500 24px 'Inter';fill:#6b7280">Figure 6. Rewards System</text>
</svg>
